HIERARCHY
ROOT Hips
{
	OFFSET 0.000000 8.830580 0.000000
	CHANNELS 6 Xposition Yposition Zposition Zrotation Yrotation Xrotation 
	JOINT Spine
	{
		OFFSET 0.000000 0.010000 0.000000
		CHANNELS 3 Zrotation Yrotation Xrotation
		JOINT Spine1
		{
			OFFSET 0.000000 2.459130 0.000000
			CHANNELS 3 Zrotation Yrotation Xrotation
			JOINT Neck
			{
				OFFSET 0.000000 2.484630 0.000000
				CHANNELS 3 Zrotation Yrotation Xrotation
				JOINT Head_virtual
				{
					OFFSET 0.000000 0.000000 0.000000
					CHANNELS 3 Zrotation Yrotation Xrotation
					JOINT Head
					{
						OFFSET 0.000000 0.927525 0.000000
						CHANNELS 3 Zrotation Yrotation Xrotation
						End Site
						{
							OFFSET 0.000000 0.000000 0.000000
						}
					}
				}
				JOINT LeftUpArm_virtual
				{
					OFFSET 0.000000 0.000000 0.000000
					CHANNELS 3 Zrotation Yrotation Xrotation
					JOINT LeftUpArm
					{
						OFFSET 1.248820 0.000000 0.000000
						CHANNELS 3 Zrotation Yrotation Xrotation
						JOINT LeftForeArm
						{
							OFFSET 2.597580 0.000000 0.000000
							CHANNELS 3 Zrotation Yrotation Xrotation
							JOINT LeftHand
							{
								OFFSET 2.455420 0.000000 0.000000
								CHANNELS 3 Zrotation Yrotation Xrotation
								End Site
								{
									OFFSET 0.000000 0.000000 0.000000
								}
							}
						}
					}
				}
				JOINT RightUpArm_virtual
				{
					OFFSET -0.000000 -0.000000 -0.000000
					CHANNELS 3 Zrotation Yrotation Xrotation
					JOINT RightUpArm
					{
						OFFSET -1.248820 -0.000000 -0.000000
						CHANNELS 3 Zrotation Yrotation Xrotation
						JOINT RightForeArm
						{
							OFFSET -2.597580 -0.000000 -0.000000
							CHANNELS 3 Zrotation Yrotation Xrotation
							JOINT RightHand
							{
								OFFSET -2.455420 -0.000000 -0.000000
								CHANNELS 3 Zrotation Yrotation Xrotation
								End Site
								{
									OFFSET 0.000000 0.000000 0.000000
								}
							}
						}
					}
				}
			}
		}
	}
	JOINT LeftUpLeg
	{
		OFFSET 1.271939 0.000000 0.000000
		CHANNELS 3 Zrotation Yrotation Xrotation
		JOINT LeftLowLeg
		{
			OFFSET 0.000000 -4.342910 0.000000
			CHANNELS 3 Zrotation Yrotation Xrotation
			JOINT LeftFoot
			{
				OFFSET 0.000000 -4.487670 0.000000
				CHANNELS 3 Zrotation Yrotation Xrotation
				JOINT LeftToeBase
				{
					OFFSET 0.000000 0.000000 1.515070
					CHANNELS 3 Zrotation Yrotation Xrotation
					End Site
					{
						OFFSET 0.000000 0.000000 0.000000
					}
				}
			}
		}
	}
	JOINT RightUpLeg
	{
		OFFSET -1.271939 0.000000 0.000000
		CHANNELS 3 Zrotation Yrotation Xrotation
		JOINT RightLowLeg
		{
			OFFSET 0.000000 -4.342910 0.000000
			CHANNELS 3 Zrotation Yrotation Xrotation
			JOINT RightFoot
			{
				OFFSET 0.000000 -4.487670 0.000000
				CHANNELS 3 Zrotation Yrotation Xrotation
				JOINT RightToeBase
				{
					OFFSET 0.000000 0.000000 1.515070
					CHANNELS 3 Zrotation Yrotation Xrotation
					End Site
					{
						OFFSET 0.000000 0.000000 0.000000
					}
				}
			}
		}
	}
}
MOTION
Frames: 11
Frame Time: 0.041667
-13.900884 1.754409 40.636672 134.659182 -41.449201 -179.277383 5.251873 18.922768 2.506616 -28.454369 -41.298302 36.663593 0.000000 0.000000 0.000000 -24.031125 -41.764020 24.204937 -4.913044 27.920466 -92.084119 -26.842400 -6.957140 4.757610 -20.065100 -54.174702 38.420700 0.000000 -83.809799 0.000000 13.701200 -3.677130 27.103901 19.126499 -9.518360 -0.297935 46.073700 -2.693860 -13.713500 0.000000 11.530900 0.000000 -73.325600 -0.957934 -10.425300 -18.174422 6.434426 -80.983116 0.000000 0.000000 113.793999 -22.159084 -36.947603 15.824787 0.000000 0.000000 -14.170258 34.209835 -21.883826 -56.027920 0.000000 0.000000 130.968994 32.766997 12.424176 -1.885983 0.000000 0.000000 -19.133290 
-13.866834 1.626902 40.578531 134.451861 -43.327171 -179.891385 4.472364 19.149143 2.473608 -32.194572 -40.727208 39.297976 0.000000 0.000000 0.000000 -24.469188 -41.488638 26.739769 -4.726368 29.598115 -91.120624 -26.678499 -7.855420 5.584820 -21.032499 -53.061100 39.909401 0.000000 -84.607597 0.000000 13.789300 -3.709220 27.030899 19.023001 -9.956710 -0.321232 48.455601 -4.040310 -9.136090 0.000000 12.070300 0.000000 -73.103699 -4.447520 -10.426400 -18.008514 6.630007 -81.267279 0.000000 0.000000 114.391998 -22.469599 -37.444161 17.535312 0.000000 0.000000 -14.906836 36.630097 -23.381030 -56.318674 0.000000 0.000000 130.552994 31.293157 10.122804 -3.401613 0.000000 0.000000 -19.307910 
-13.842333 1.514684 40.529912 133.853975 -44.604061 179.737950 4.169577 19.675265 2.683222 -36.458487 -40.143387 41.454681 0.000000 0.000000 0.000000 -25.874795 -40.705081 30.004054 -4.431639 30.695828 -90.107987 -26.649500 -8.021320 6.381710 -21.879499 -51.682800 41.440899 0.000000 -85.278503 0.000000 14.684200 -4.331130 25.725000 18.603300 -9.581370 -0.116532 50.895699 -6.926340 -4.423140 0.000000 14.343700 0.000000 -73.312302 -8.692660 -10.119200 -18.168684 7.138136 -81.512969 0.000000 0.000000 114.885002 -22.447256 -37.949470 19.160134 0.000000 0.000000 -15.063017 38.501091 -24.630531 -56.340585 0.000000 0.000000 130.162003 29.573856 7.859758 -5.527183 0.000000 0.000000 -17.892270 
-13.829963 1.413109 40.498885 132.671211 -45.238511 179.545358 3.480683 20.341007 2.829603 -39.534905 -39.008764 43.478773 0.000000 0.000000 0.000000 -27.161548 -40.291200 32.771370 -4.140416 31.205697 -89.236238 -26.778900 -7.928280 6.388290 -23.143200 -50.833099 43.881302 0.000000 -85.593597 0.000000 17.094601 -4.935570 22.550699 17.459400 -9.115070 -0.410492 53.848202 -9.542000 -2.212450 0.000000 15.901000 0.000000 -75.030701 -10.656200 -9.204230 -18.686205 8.033304 -81.538966 0.000000 0.000000 115.253998 -22.765156 -38.439828 21.015164 0.000000 0.000000 -14.693033 39.600194 -25.592886 -56.215637 0.000000 0.000000 130.175003 27.720520 5.444330 -7.565628 0.000000 0.000000 -16.054810 
-13.826046 1.326947 40.467324 131.582523 -45.850662 179.248716 3.004123 21.011986 2.871965 -42.219580 -37.838090 45.175750 0.000000 0.000000 0.000000 -28.978393 -39.873767 36.418069 -4.236658 31.583039 -89.304682 -27.042000 -7.312190 5.951300 -25.060499 -50.121201 47.355301 0.000000 -85.602699 0.000000 19.461599 -4.903050 20.376400 15.846000 -8.217810 -0.157355 57.017300 -12.106500 -0.747915 0.000000 17.177900 0.000000 -76.674004 -12.307500 -8.608090 -18.990648 8.777203 -81.318179 0.000000 0.000000 115.540001 -24.045718 -38.934670 23.238109 0.000000 0.000000 -14.288767 40.419941 -26.773196 -56.116297 0.000000 0.000000 130.533997 25.039229 2.965601 -9.799353 0.000000 0.000000 -13.329060 
-13.824290 1.245054 40.463130 130.249984 -45.753354 178.947498 2.598218 21.948289 3.523636 -43.334353 -36.774620 45.706752 0.000000 0.000000 0.000000 -30.864455 -39.561113 39.831710 -4.384009 31.458866 -89.661654 -27.793900 -6.592180 6.009620 -26.651199 -50.087299 49.557701 0.000000 -85.021599 0.000000 18.664400 -5.548660 18.784201 13.788700 -6.675500 0.726109 60.119099 -14.695600 0.656912 0.000000 19.194599 0.000000 -78.594398 -16.043200 -8.189840 -19.700106 10.081353 -80.913979 0.000000 0.000000 115.748001 -24.614338 -39.188721 24.416433 0.000000 0.000000 -14.436024 40.649612 -27.394460 -55.989719 0.000000 0.000000 131.104996 22.369487 0.191562 -11.482365 0.000000 0.000000 -10.183480 
-13.821753 1.166038 40.470121 129.264186 -45.602150 178.646056 2.266016 22.728599 4.073857 -43.336956 -35.718177 45.898510 0.000000 0.000000 0.000000 -32.193451 -39.722440 42.462656 -4.489342 31.344901 -90.236087 -28.587000 -5.817750 6.148240 -28.358601 -50.630402 52.202202 0.000000 -84.403702 0.000000 18.728100 -5.590520 19.584600 11.438600 -4.618950 2.011100 63.838699 -16.349899 -0.565015 0.000000 20.123100 0.000000 -80.130798 -18.461901 -7.968630 -20.131637 10.989891 -80.711977 0.000000 0.000000 115.903000 -25.244506 -39.366483 25.204662 0.000000 0.000000 -14.593992 41.085874 -27.811134 -56.088831 0.000000 0.000000 131.350006 22.897527 -1.138437 -12.257958 0.000000 0.000000 -9.866430 
-13.819795 1.092509 40.487457 128.389979 -45.595517 178.452669 1.979216 23.423353 4.546792 -42.829997 -34.643314 45.978762 0.000000 0.000000 0.000000 -33.199611 -40.265998 45.066121 -4.500498 31.648818 -90.760320 -29.028999 -5.660990 6.284150 -30.792700 -50.808102 55.006199 0.000000 -83.705498 0.000000 17.526100 -5.315890 21.490801 9.100170 -2.393790 2.969590 67.431999 -17.676800 -1.370410 0.000000 20.201200 0.000000 -81.159897 -21.969500 -8.542900 -20.520470 11.429408 -80.653921 0.000000 0.000000 115.945000 -25.986185 -39.412483 26.056692 0.000000 0.000000 -14.765713 41.600820 -28.204452 -56.661038 0.000000 0.000000 131.628998 23.409150 -2.595869 -12.105309 0.000000 0.000000 -10.550880 
-13.808711 1.018796 40.509631 128.159424 -45.596273 178.210872 1.990835 24.054036 4.905848 -41.986268 -33.739375 45.773134 0.000000 0.000000 0.000000 -34.073232 -40.573835 47.472231 -3.897668 32.029332 -91.066679 -29.389000 -5.799030 6.005550 -33.790401 -50.322899 57.994499 0.000000 -82.980797 0.000000 14.539400 -5.609770 23.498800 7.393470 0.066347 3.581680 69.872200 -19.561199 0.876390 0.000000 21.307600 0.000000 -82.008102 -29.592899 -9.286180 -20.537388 11.574700 -81.160022 0.000000 0.000000 116.022003 -26.528624 -39.313520 26.986049 0.000000 0.000000 -14.631983 42.681961 -28.524054 -57.242025 0.000000 0.000000 131.602997 23.132729 -4.017052 -12.607080 0.000000 0.000000 -10.845170 
-13.796093 0.960915 40.510057 129.206377 -46.644251 176.739729 2.763805 24.107095 4.949640 -41.333480 -32.379291 46.607428 0.000000 0.000000 0.000000 -34.507313 -41.425633 49.564257 -3.344470 32.856820 -90.868102 -29.622801 -6.246460 7.376450 -34.523201 -50.992699 59.517601 0.000000 -82.373100 0.000000 13.201400 -6.072200 23.968599 6.318280 2.066260 3.985160 72.227203 -21.236099 1.940460 0.000000 22.326000 0.000000 -82.409203 -35.561699 -10.105100 -19.591706 10.802832 -81.181077 0.000000 0.000000 116.279999 -26.891186 -39.155159 27.792756 0.000000 0.000000 -14.058814 44.294850 -30.105286 -57.678787 0.000000 0.000000 131.399994 20.105735 -6.395742 -13.435472 0.000000 0.000000 -8.555530 
-13.780995 0.896288 40.537747 129.394345 -46.731612 176.237681 3.435031 24.724952 5.574498 -40.763369 -31.354132 46.573730 0.000000 0.000000 0.000000 -34.771671 -42.658734 51.135921 -3.185918 33.533319 -90.459426 -29.948999 -6.168910 7.922020 -35.556599 -51.566299 64.102898 0.000000 -82.267700 0.000000 18.171000 -5.856430 25.137699 5.599630 3.455430 4.501620 74.344498 -22.291901 1.357070 0.000000 23.030800 0.000000 -83.041397 -38.840099 -10.362700 -19.419549 10.756260 -81.665100 0.000000 0.000000 116.324997 -27.260689 -38.930499 28.472186 0.000000 0.000000 -13.291210 45.365783 -30.570239 -58.423473 0.000000 0.000000 131.455994 17.665310 -8.557052 -13.765299 0.000000 0.000000 -7.224110 
